# xmcd CD database file
#
# Track frame offsets:
#	150
#	13929
#	27320
#	39343
#	51386
#	63662
#	77263
#	95524
#	106740
#	117235
#	133144
#	150946
#	163202
#	173802
#	183963
#
# Disc length: 2676 seconds
#
# Revision: 0
# Processed by: cddbd v1.5.2PL0 Copyright (c) Steve Scherf et al.
# Submitted via: CDex 1.51
#
DISCID=bc0a720f
DTITLE=Ursprung Buam - Das Beste  CD1
DYEAR=2004
DGENRE=Volksmusik
TTITLE0=Ursprung Buam - Don Camillo und Peppone 
TTITLE1=Ursprung Buam - Der König von Tirol 
TTITLE2=Ursprung Buam - I woaß net ei, i woaß net aus 
TTITLE3=Ursprung Buam - Die Ursprung Buam geig'n auf 
TTITLE4=Ursprung Buam - Gemma gemma - Boarischer 
TTITLE5=Ursprung Buam - I geig' auf, dass die Fetz'n fliagn 
TTITLE6=Ursprung Buam - Heimat der Berge 
TTITLE7=Ursprung Buam - Der Teufelsgeigerbua 
TTITLE8=Ursprung Buam - Verzwickt is a tia 
TTITLE9=Ursprung Buam - Temmach no amol 
TTITLE10=Ursprung Buam - Wenn meine Gipfel träumen 
TTITLE11=Ursprung Buam - A Diandl zan gearn hob'n 
TTITLE12=Ursprung Buam - Kohlstattl-Boarischer 
TTITLE13=Ursprung Buam - Zillertaler Aufgeigertanz 
TTITLE14=Ursprung Buam - Schia langsam 
EXTD=YEAR: 2004
EXTT0=
EXTT1=
EXTT2=
EXTT3=
EXTT4=
EXTT5=
EXTT6=
EXTT7=
EXTT8=
EXTT9=
EXTT10=
EXTT11=
EXTT12=
EXTT13=
EXTT14=
PLAYORDER=
